<?xml version="1.0" ?><!DOCTYPE svg  PUBLIC '-//W3C//DTD SVG 20010904//EN'  'http://www.w3.org/TR/2001/REC-SVG-20010904/DTD/svg10.dtd'><svg height="512.000000pt" preserveAspectRatio="xMidYMid meet" version="1.0" viewBox="0 0 512.000000 512.000000" width="512.000000pt" xmlns="http://www.w3.org/2000/svg"><g fill="#000000" stroke="none" transform="translate(0.000000,512.000000) scale(0.100000,-0.100000)"><path d="M2260 3739 c-559 -146 -938 -660 -907 -1229 13 -232 76 -421 203 -613 220 -330 607 -537 1004 -537 397 0 784 207 1004 538 93 140 146 265 182 434 25 116 25 361 0 478 -22 102 -69 236 -92 262 -26 28 -69 23 -111 -16 -58 -51 -101 -70 -163 -70 -63 0 -117 22 -162 68 -36 35 -67 99 -68 136 0 48 -26 70 -82 70 -113 0 -192 52 -240 157 -32 71 -53 83 -114 63 -124 -41 -272 57 -290 193 -8 55 -32 87 -66 86 -13 0 -57 -9 -98 -20z m47 -146 c31 -95 105 -178 192 -220 40 -18 77 -27 136 -31 81 -5 82 -5 100 -39 41 -76 155 -153 251 -168 38 -6 42 -9 58 -56 39 -107 171 -209 293 -224 60 -8 151 9 206 36 l37 20 11 -28 c45 -118 58 -389 26 -530 -36 -155 -100 -299 -188 -420 -48 -67 -205 -223 -223 -223 -7 0 -27 22 -44 48 -43 67 -113 129 -180 160 -53 25 -67 27 -182 26 -91 0 -162 -8 -263 -27 -159 -31 -222 -33 -297 -11 -80 24 -149 99 -228 249 -105 201 -174 271 -290 296 -54 11 -179 7 -215 -7 -22 -8 -31 64 -24 180 30 445 311 817 730 966 66 24 86 24 94 3z m-582 -1292 c55 -25 104 -82 160 -187 113 -212 160 -268 265 -318 62 -30 70 -31 190 -31 90 1 157 7 240 25 160 32 278 32 345 0 53 -26 120 -88 145 -134 12 -24 12 -28 0 -37 -37 -23 -172 -73 -259 -96 -83 -22 -117 -26 -251 -26 -134 0 -168 4 -251 26 -133 35 -236 80 -340 148 -199 131 -353 329 -429 551 -33 98 -34 96 75 97 47 0 83 -5 110 -18z"/><path d="M2065 3340 c-11 -12 -19 -36 -19 -55 0 -47 28 -75 76 -75 49 0 78 28 78 75 0 47 -29 75 -78 75 -27 0 -45 -7 -57 -20z"/><path d="M1991 2994 c-37 -47 -24 -104 29 -123 37 -12 72 -1 94 31 22 30 20 60 -5 92 -16 20 -29 26 -59 26 -30 0 -43 -6 -59 -26z"/><path d="M2483 2989 c-82 -14 -158 -53 -224 -115 -259 -248 -121 -687 234 -744 289 -46 543 208 497 497 -16 98 -58 179 -129 247 -68 64 -141 101 -233 116 -71 11 -73 11 -145 -1z m203 -154 c192 -85 238 -339 88 -489 -191 -190 -517 -55 -517 214 0 223 224 367 429 275z"/><path d="M1670 2820 c-25 -25 -26 -80 -2 -110 25 -30 85 -32 114 -2 31 30 30 88 -1 113 -31 25 -86 24 -111 -1z"/><path d="M3380 2570 c-27 -27 -27 -90 0 -115 12 -11 36 -19 55 -19 47 0 75 28 75 76 0 49 -28 78 -75 78 -22 0 -43 -8 -55 -20z"/><path d="M3052 2217 c-42 -45 -20 -119 38 -132 61 -13 113 50 89 107 -22 53 -89 66 -127 25z"/></g></svg>